<?xml version="1.0" standalone="no"?>
<!DOCTYPE svg PUBLIC "-//W3C//DTD SVG 20010904//EN"
 "http://www.w3.org/TR/2001/REC-SVG-20010904/DTD/svg10.dtd">
<svg version="1.0" xmlns="http://www.w3.org/2000/svg"
 width="512.000000pt" height="512.000000pt" viewBox="0 0 512.000000 512.000000"
 preserveAspectRatio="xMidYMid meet">

<g transform="translate(0.000000,512.000000) scale(0.100000,-0.100000)"
fill="#ffffff" stroke="none">
<path d="M2420 4883 c-306 -21 -622 -104 -870 -228 -96 -48 -110 -61 -110
-101 0 -38 32 -74 65 -74 12 0 67 21 121 46 132 62 263 109 403 144 116 29
312 62 320 54 3 -3 -22 -33 -55 -67 -150 -154 -348 -419 -471 -629 l-22 -38
-436 0 c-239 0 -435 4 -435 8 0 11 202 207 270 262 30 25 60 52 67 60 33 41
-6 110 -62 110 -28 0 -51 -14 -123 -74 -258 -215 -457 -466 -606 -766 -39 -80
-86 -189 -105 -242 l-33 -97 -49 -10 c-111 -24 -208 -102 -255 -204 l-29 -62
0 -415 0 -415 29 -62 c47 -102 144 -180 255 -204 l49 -10 33 -97 c101 -294
308 -619 545 -857 708 -708 1788 -883 2684 -435 143 71 170 93 170 134 0 37
-34 76 -67 76 -11 0 -80 -31 -154 -68 -150 -77 -313 -137 -469 -175 -106 -26
-302 -58 -309 -51 -2 2 28 38 68 79 133 141 352 436 458 617 l22 38 436 0
c240 0 435 -4 435 -9 0 -4 -61 -67 -135 -139 -145 -141 -153 -156 -114 -206
44 -56 102 -25 271 147 106 106 214 239 298 367 78 118 194 354 238 482 l34
97 49 10 c113 25 206 99 256 206 l28 60 0 415 0 415 -28 60 c-50 107 -143 181
-256 206 l-49 10 -33 97 c-46 132 -162 365 -247 492 -364 544 -920 908 -1552
1014 -173 29 -375 40 -530 29z m445 -168 c99 -10 279 -54 403 -97 214 -73 421
-183 609 -324 80 -61 313 -280 313 -295 0 -5 -196 -9 -435 -9 l-436 0 -22 38
c-105 180 -324 476 -457 615 -73 77 -82 92 -52 83 9 -2 44 -7 77 -11z m-184
-123 c63 -65 149 -161 191 -214 72 -89 268 -369 268 -382 0 -3 -261 -6 -580
-6 -319 0 -580 3 -580 6 0 13 196 293 268 382 80 99 298 332 312 332 4 0 59
-53 121 -118z m-1026 -884 c-58 -123 -154 -365 -170 -430 l-7 -28 -490 0 -490
0 7 28 c24 96 179 403 261 515 l34 47 459 0 460 0 -64 -132z m1631 27 c55
-110 126 -274 173 -402 l30 -83 -929 0 -929 0 28 78 c68 182 154 378 207 468
l26 44 671 -2 672 -3 51 -100z m1086 30 c71 -106 152 -257 202 -382 25 -61 46
-117 46 -122 0 -8 -151 -11 -489 -11 l-489 0 -7 28 c-16 65 -112 307 -170 430
l-64 132 462 -2 462 -3 47 -70z m453 -676 c52 -15 119 -82 134 -134 15 -54 15
-735 0 -790 -14 -50 -84 -120 -136 -134 -53 -15 -4473 -15 -4526 0 -49 13
-105 63 -128 114 -17 36 -19 74 -19 415 0 415 1 421 68 483 63 60 -89 56 2337
57 1604 0 2241 -3 2270 -11z m-3340 -1246 c16 -66 112 -308 170 -431 l64 -132
-462 2 -462 3 -47 70 c-71 106 -152 257 -202 382 -25 61 -46 117 -46 122 0 8
151 11 489 11 l489 0 7 -27z m1974 -55 c-47 -129 -118 -293 -173 -403 l-51
-100 -675 0 -675 0 -62 125 c-55 109 -136 301 -178 421 l-14 39 929 0 929 0
-30 -82z m1161 70 c0 -23 -85 -223 -132 -310 -25 -47 -72 -126 -104 -177 l-59
-91 -462 0 -462 0 59 123 c61 128 136 312 166 410 l18 57 488 0 c384 0 488 -3
488 -12z m-2797 -765 c123 -211 321 -476 471 -630 33 -34 58 -64 55 -67 -2 -2
-47 2 -99 10 -368 53 -704 194 -1007 420 -80 61 -313 280 -313 295 0 5 196 9
435 9 l436 0 22 -37z m1317 31 c0 -13 -196 -293 -268 -382 -42 -53 -130 -150
-194 -217 l-118 -120 -117 120 c-65 67 -153 164 -195 217 -72 89 -268 369
-268 382 0 3 261 6 580 6 319 0 580 -3 580 -6z"/>
<path d="M985 2895 c-14 -13 -25 -34 -25 -47 0 -13 49 -155 108 -317 87 -238
112 -298 134 -314 28 -21 65 -18 91 7 7 8 45 100 83 204 38 105 70 189 72 187
2 -2 35 -88 73 -192 70 -192 88 -223 134 -223 47 0 63 30 175 340 97 267 109
307 100 331 -6 14 -23 31 -36 38 -68 31 -89 3 -169 -219 -37 -102 -68 -186
-69 -188 -2 -1 -33 82 -71 185 -70 195 -93 233 -139 233 -45 0 -63 -32 -132
-222 -37 -104 -70 -188 -73 -188 -3 0 -37 86 -75 190 -46 128 -76 196 -90 205
-30 22 -64 18 -91 -10z"/>
<path d="M2095 2895 c-14 -13 -25 -32 -25 -42 0 -10 48 -151 106 -313 110
-303 129 -340 177 -340 47 0 62 25 132 219 38 105 72 191 75 191 3 0 37 -86
75 -191 45 -126 75 -195 89 -205 30 -20 64 -17 89 9 23 22 237 593 237 630 0
26 -45 67 -73 67 -47 0 -66 -30 -137 -224 -39 -104 -71 -191 -73 -192 -1 -2
-34 83 -72 187 -69 192 -91 229 -135 229 -44 0 -66 -37 -136 -229 -38 -104
-70 -188 -72 -187 -1 2 -34 88 -72 192 -44 119 -77 195 -91 207 -30 24 -66 21
-94 -8z"/>
<path d="M3213 2900 c-12 -10 -24 -28 -27 -38 -9 -27 209 -622 235 -644 12
-10 31 -18 44 -18 46 0 64 31 134 223 38 104 71 190 73 192 2 2 34 -82 72
-187 38 -104 76 -196 83 -204 26 -25 63 -28 91 -7 22 16 47 76 134 314 59 162
108 304 108 317 0 30 -42 72 -72 72 -49 0 -63 -24 -134 -220 -38 -104 -72
-190 -75 -190 -3 0 -36 84 -73 188 -69 190 -87 222 -132 222 -46 0 -69 -38
-139 -233 -38 -103 -69 -186 -71 -185 -1 2 -32 86 -69 188 -69 191 -92 230
-139 230 -12 0 -32 -9 -43 -20z"/>
</g>
</svg>
