<?xml version="1.0" standalone="no"?>
<!DOCTYPE svg PUBLIC "-//W3C//DTD SVG 20010904//EN"
 "http://www.w3.org/TR/2001/REC-SVG-20010904/DTD/svg10.dtd">
<svg version="1.0" xmlns="http://www.w3.org/2000/svg"
 width="512.000000pt" height="512.000000pt" viewBox="0 0 512.000000 512.000000"
 preserveAspectRatio="xMidYMid meet">

<g transform="translate(0.000000,512.000000) scale(0.100000,-0.100000)"
 stroke="none">
<path fill="#ffffff" d="M455 4488 c-55 -48 -64 -19 299 -1005 185 -502 336 -917 336 -923 0
-5 -151 -418 -335 -917 -184 -499 -335 -920 -335 -936 0 -39 46 -83 96 -91 32
-6 52 -1 104 23 36 16 945 428 2022 915 1076 486 1974 894 1995 905 73 37 84
110 25 171 -33 35 -251 136 -1902 883 -1026 464 -1941 878 -2035 920 -187 85
-226 93 -270 55z m1928 -1039 c914 -413 1678 -760 1697 -770 34 -18 1 -18
-1385 -19 l-1420 0 -280 757 c-296 798 -290 783 -280 783 4 0 754 -338 1668
-751z m1697 -1008 c-83 -44 -3362 -1522 -3367 -1518 -2 3 123 350 279 771
l283 766 1420 0 c1386 -1 1419 -1 1385 -19z"/>
</g>
</svg>
